<?xml version="1.0" encoding="UTF-8"?>
<svg id="Layer_1" data-name="Layer 1" xmlns="http://www.w3.org/2000/svg" viewBox="0 0 1920 1080">
  <defs>
    <style>
      .cls-1 {
        fill: #fff;
      }
    </style>
  </defs>
  <path class="cls-1" d="M384.95,665.75l-.8-1.37-130.25-.49-58.02-98.74-24.02-12.16-11.38,22.48c23.55,41.85,48.56,82.95,72.47,124.58l171.33.31-19.32-34.6ZM425.66,392.33l-.61-1.03-20.66,36.63,43.11,73.07,21.28,39.28-57.8,100.32,2.4,27.57,24.9-2.16c8.57-14.51,17.06-29.16,25.46-43.73,15.74-27.27,31.41-54.64,46.44-82.28l-84.53-147.67ZM221.23,551.97h97.29l49.42,84.6c-.56.63-1.35.63-2.11.72-10.23,1.26-26.77.03-37.76,0-19.32-.04-38.69-.36-58.01-.56l-48.84-84.77ZM412.62,498.28c8.04,14.07,16.27,28.04,24.05,42.27l-48.02,84.55-49.31-84.7,49.03-84.45c8.18,14.05,16.18,28.22,24.25,42.33"/>
  <path class="cls-1" d="M389.03,402.09l-10.32-21.88-144.66-.56-2.07,1.87-83.82,146.79h40.55c7.6-12.97,14.45-25.97,21.87-38.69.93-1.59,2.72-3.61,3.63-5.16,13.26-22.72,25.94-45.84,39.87-68.18l105.55-.32,29.41-13.88Z"/>
  <path class="cls-1" d="M367.1,443.56l-97.09.77c-12.79,20.78-24.29,42.49-36.56,63.4-3.99,6.79-8.3,13.49-12.5,20.16l97.71.28,48.44-84.61Z"/>
  <g>
    <path class="cls-1" d="M636.32,461.92c16.19,0,29.06,5.51,38.62,16.54,9.56,11.02,13.1,25.17,10.64,42.44-2.31,16.34-9.45,29.48-21.39,39.43-11.95,9.94-27.33,14.92-46.14,14.92h-21.28l-8.56,48.56h-41.33l28.54-161.88h60.9ZM644.47,518.58c1.08-5.24.23-9.4-2.54-12.49-2.77-3.08-6.94-4.63-12.49-4.63h-19.66l-6.08,34.46h20.18c5.4,0,9.94-1.58,13.65-4.74,3.7-3.16,6.01-7.36,6.94-12.6Z"/>
    <path class="cls-1" d="M770.51,623.8l-2.54-23.36h-53.88l-11.1,23.36h-45.56l81.87-161.88h50.42l24.98,161.88h-44.17ZM731.19,564.83h32.84l-6.01-55.96-26.83,55.96Z"/>
    <path class="cls-1" d="M900.24,627.27c-24.82,0-44.05-8.32-57.7-24.98-13.64-16.65-18.46-37.23-14.45-61.75,3.85-23.9,14.76-43.55,32.72-58.97,17.96-15.41,38.89-23.13,62.79-23.13,15.88,0,29.41,3.43,40.58,10.29,11.18,6.86,19.69,16.3,25.55,28.33l-37.93,20.12c-6.17-12.18-16.88-18.27-32.14-18.27-12.64,0-23.63,4.05-32.95,12.14-9.33,8.09-15.15,18.7-17.46,31.8-2.16,12.8-.16,23.32,6.01,31.57,6.16,8.25,15.41,12.37,27.75,12.37,15.57,0,28.21-6.47,37.93-19.43l33.99,21.97c-8.64,12.02-19.46,21.36-32.49,27.98-13.03,6.63-27.1,9.94-42.21,9.94Z"/>
    <path class="cls-1" d="M1145.61,461.92l-68.92,80.48,41.17,81.4h-42.78l-37.03-73.73-12.99,73.73h-41.33l28.51-161.88h41.33l-11.55,65.59,55.26-65.59h48.33Z"/>
    <path class="cls-1" d="M1321.59,461.92l-7.17,40.01h-39.78l-21.57,121.87h-41.33l21.57-121.87h-40.01l6.94-40.01h121.35Z"/>
    <path class="cls-1" d="M1449.94,520.2c-1.85,10.33-5.82,19.35-11.91,27.06-6.09,7.71-13.84,13.65-23.24,17.81l22.2,58.74h-41.63l-19-52.25-17.62-.16-9.23,52.4h-41.33l28.53-161.88h63.48c16.05,0,29.08,5.71,39.11,17.11,10.02,11.41,13.56,25.13,10.64,41.16ZM1371.31,500.08l-6.43,36.45h23.79c5.08.06,9.43-1.61,13.05-5,3.62-3.39,5.89-7.78,6.81-13.18.93-5.4.04-9.79-2.66-13.18-2.7-3.39-6.82-5.09-12.37-5.09h-22.2Z"/>
    <path class="cls-1" d="M1552.62,623.8l-2.54-23.36h-53.88l-11.1,23.36h-45.56l81.87-161.88h50.42l24.98,161.88h-44.17ZM1513.3,564.83h32.84l-6.01-55.96-26.83,55.96Z"/>
    <path class="cls-1" d="M1682.35,627.27c-24.82,0-44.05-8.32-57.7-24.98-13.64-16.65-18.46-37.23-14.45-61.75,3.85-23.9,14.76-43.55,32.72-58.97,17.96-15.41,38.89-23.13,62.79-23.13,15.88,0,29.41,3.43,40.58,10.29,11.18,6.86,19.69,16.3,25.55,28.33l-37.93,20.12c-6.17-12.18-16.88-18.27-32.14-18.27-12.64,0-23.63,4.05-32.95,12.14-9.33,8.09-15.15,18.7-17.46,31.8-2.16,12.8-.16,23.32,6.01,31.57,6.16,8.25,15.41,12.37,27.75,12.37,15.57,0,28.21-6.47,37.93-19.43l33.99,21.97c-8.64,12.02-19.46,21.36-32.49,27.98-13.03,6.63-27.1,9.94-42.21,9.94Z"/>
  </g>
</svg>