<?xml version="1.0" encoding="UTF-8"?>
<svg id="Layer_1" data-name="Layer 1" xmlns="http://www.w3.org/2000/svg" viewBox="0 0 528 456">
  <defs>
    <style>
      .cls-1 {
        fill: #fefefe;
      }

      .cls-1, .cls-2, .cls-3, .cls-4 {
        stroke-width: 0px;
      }

      .cls-2 {
        fill: #f4901e;
      }

      .cls-3 {
        fill: none;
      }

      .cls-4 {
        fill: #15bb08;
      }
    </style>
  </defs>
  <path class="cls-2" d="M0,405h9v21h24v-21h9v50h-9v-21H9v21H0v-50Z"/>
  <path class="cls-2" d="M59,436.05v-1c0-10.2,8.07-18.81,18.27-18.94,12.3-.16,18.52,9.41,18.52,20.45,0,.79-.07,1.58-.14,2.45h-27.94c.94,6.19,5.33,9.65,10.95,9.65,4.25,0,7.27-1.58,10.3-4.54l5.11,4.54c-3.6,4.32-8.57,7.13-15.55,7.13-11.02,0-19.51-7.99-19.51-19.73ZM86.86,433c-.58-5.62-3.89-10.01-9.65-10.01-5.33,0-9.07,4.1-9.86,10.01h19.51Z"/>
  <path class="cls-2" d="M135,455v-4.68c-2.61,3.1-6.59,5.47-12.38,5.47-7.24,0-13.62-4.1-13.62-11.74v-.12c0-8.45,6.57-12.49,15.46-12.49,4.62,0,7.58.65,10.54,1.59v-.71c0-5.26-3.48-8.14-9.83-8.14-4.46,0-7.79.94-11.42,2.38l-2.5-6.98c4.39-1.87,8.7-3.17,15.2-3.17,11.8,0,17.55,5.9,17.55,16.06v22.54h-9ZM135,439.19c-2.18-.84-5.2-1.47-8.5-1.47-5.34,0-8.5,2.18-8.5,5.76v.14c0,3.51,3.16,5.48,7.16,5.48,5.62,0,9.84-3.16,9.84-7.8v-2.11Z"/>
  <path class="cls-2" d="M161,402h9v53h-9v-53Z"/>
  <path class="cls-2" d="M190,444.43v-20.43h-4v-7h4v-10h9v10h10v7h-10v18.65c0,3.38,1.71,4.75,4.64,4.75,1.93,0,3.64-.43,5.36-1.3v7.64c-2.18,1.24-4.66,1.97-7.93,1.97-6.48,0-11.07-2.84-11.07-11.28Z"/>
  <path class="cls-2" d="M225,402h9v20.62c2.41-3.63,5.88-6.75,11.69-6.75,8.43,0,13.31,5.81,13.31,14.74v24.39h-8v-21.6c0-5.9-3-9.29-8.28-9.29s-8.72,3.53-8.72,9.43v21.46h-9v-53Z"/>
  <path class="cls-4" d="M279,426h-5v-9h4v-2.45c0-4.25,1.09-7.34,3.14-9.36,2.04-2.02,5.04-3.02,8.98-3.02,3.5,0,5.84.43,7.88,1.08v8.83c-1.6-.58-3.12-.94-5.01-.94-2.54,0-3.99,1.31-3.99,4.21v1.66h9v9h-8v29h-11v-29Z"/>
  <path class="cls-4" d="M311,441.25v-25.25h11v21.53c0,5.18,2.36,7.85,6.4,7.85s6.6-2.66,6.6-7.85v-21.53h11v39h-11v-5.53c-2.48,3.27-5.66,6.26-11.11,6.26-8.14,0-12.89-5.53-12.89-14.48Z"/>
  <path class="cls-4" d="M364,402h11v53h-11v-53Z"/>
  <path class="cls-4" d="M393,402h11v53h-11v-53Z"/>
  <g>
    <path class="cls-4" d="M262.77,105.35c-11.79-5.06-23.96-6.16-23.82-19.78.14-14.21,11.22-19.91,22.12-23.95,20.23-7.5,39.19-4.46,55.25,10.75,15.66,14.83,20.8,36.89,12.83,56.43-4.44,10.88-9.87,22.62-23.52,22.93-13.71.31-16.25-11.78-17.94-27.41-13.66,17.21-18.2,50.8-45.7,21.54-25.71-27.36,8.81-27.78,20.77-40.51Z"/>
    <path class="cls-4" d="M122.07,156.96c-37.3-.79-67.88-31.8-67.78-69.13.03-10.44.73-21.82,13.49-24.81,13.41-3.14,17.75,6.8,21.19,17.22,8.34,25.2,24.47,44.04,47.06,57.89,5.21,3.2,16.21,3.79,12.93,12.72-2.25,6.13-11.67,5.96-18.64,6.07-2.75.05-5.5,0-8.25.04Z"/>
    <path class="cls-4" d="M164.96,49.33c.1,20.22-16.79,37.29-36.4,36.78-18.89-.49-35.4-17.11-35.65-35.89-.22-16.14,21.42-36.43,39.2-36.75,16.81-.31,32.76,17.1,32.86,35.86Z"/>
    <path class="cls-4" d="M181.09,92.42c20.77.55,39.61,20.18,38.89,39.24-.6,15.9-12.01,26-28.54,25.28-19.94-.87-38.12-20.25-36.56-39.63,1.33-16.51,12.01-23.49,26.21-24.88Z"/>
    <path class="cls-4" d="M270.85,30.81c-.93,8.22-6.61,11.38-14.08,11.86-21.34,1.37-39.9,8.9-55.33,23.88-4.29,4.16-9.49,5.68-14.98,2.58-4.87-2.75-5.7-7.67-4.55-12.54,4.36-18.52,15.3-31.83,32.86-39.36,16.97-7.28,33.43-5.44,49.2,3.74,3.67,2.14,6.28,5.23,6.89,9.86Z"/>
    <path class="cls-4" d="M60.68,141.47c-.57,9.63-4.91,14.93-13.83,15.3-8.9.37-14.27-4.21-14.52-13.21-.25-8.77,4.42-14.21,13.37-14.53,8.86-.32,13.52,4.87,14.98,12.45Z"/>
    <path class="cls-4" d="M188.94,10.83c-.01,6.53-3.36,10.91-9.24,11.84-7.13,1.12-11.84-3.23-12.82-10.02-.9-6.26,3.25-10.42,9.11-11.48,7.36-1.33,11.17,3.24,12.95,9.66Z"/>
    <path class="cls-1" d="M524.06,447c.63-2.06-.61-2.9-2.57-3.46-2.33-.68-3.35-2.93-2.09-5.01,1.82-2.98,4.61-2.49,7.18-.72-1.01,2.86-3.69-.12-4.83,2.18,1.54,2.39,6.49,2.51,5.31,7.01h-3Z"/>
    <path class="cls-1" d="M515.07,440.47c4.09,1.01,2.61,4.4,3,7-1.65-.05-3.78.64-3.05-2.51.33-1.42.06-2.99.06-4.49Z"/>
    <path class="cls-4" d="M311.34,174.14c-30.04-.27-60.08-.07-90.13-.08-29.55,0-59.1-.16-88.65.05-1.85.01-3.55.11-5.12.28-24.34-.23-41.74-.4-41.74-.4h-38.32c-1.43,18.75,13.02,38.83,32.43,44.92,11.28,3.54,22.8,2.1,34.25,2.46,2.06.06,4.13.04,6.2.02l.71,1.67c-.95.93-1.87,1.39-2.79,1.86-17.41,8.97-27.1,26.83-25.1,46.21,1.86,17.98,15.4,33.74,33.58,38.81,9.23,2.58,18.75,2.14,28.19,2,17.28-.26,25.28-1.77,24.19,22.55-.57,12.65,11,22.7,23.36,22.5,12.32-.21,22.15-9.81,22.63-22.47.28-7.41.11-14.83.07-22.25,0-1.04-.05-2.07-.11-3.08,45.57-1.32,86.88-42.76,102.24-102.88,6.04-23.63,2.07-32.01-15.89-32.17Z"/>
  </g>
  <rect id="_Slice_" data-name="&amp;lt;Slice&amp;gt;" class="cls-3" width="528" height="456"/>
</svg>